<svg xmlns="http://www.w3.org/2000/svg" xmlns:xlink="http://www.w3.org/1999/xlink" width="794" zoomAndPan="magnify" viewBox="0 0 595.5 842.249979" height="1123" preserveAspectRatio="xMidYMid meet" version="1.0"><defs><filter x="0%" y="0%" width="100%" height="100%" id="ce4d24e175"><feColorMatrix values="0 0 0 0 1 0 0 0 0 1 0 0 0 0 1 0 0 0 1 0" color-interpolation-filters="sRGB"/></filter><g/><clipPath id="23461ce70b"><path d="M 0.015625 0 L 594.984375 0 L 594.984375 841.5 L 0.015625 841.5 Z M 0.015625 0 " clip-rule="nonzero"/></clipPath><mask id="4909604f3a"><g filter="url(#ce4d24e175)"><rect x="-59.55" width="714.6" fill="#000000" y="-84.224998" height="1010.699974" fill-opacity="0.63"/></g></mask><clipPath id="cbf1e4c7c4"><path d="M 0.015625 0 L 594.984375 0 L 594.984375 841.5 L 0.015625 841.5 Z M 0.015625 0 " clip-rule="nonzero"/></clipPath><clipPath id="c6952631be"><rect x="0" width="595" y="0" height="842"/></clipPath><clipPath id="a7f7f073dc"><path d="M 484 298 L 567 298 L 567 435 L 484 435 Z M 484 298 " clip-rule="nonzero"/></clipPath><clipPath id="086fc01376"><path d="M 484.125 316.753906 L 549.371094 292.277344 L 593.589844 410.144531 L 528.339844 434.621094 Z M 484.125 316.753906 " clip-rule="nonzero"/></clipPath><clipPath id="bd467dea2a"><path d="M 417.769531 341.648438 L 549.667969 292.164062 L 593.886719 410.03125 L 461.988281 459.515625 Z M 417.769531 341.648438 " clip-rule="nonzero"/></clipPath></defs><g clip-path="url(#23461ce70b)"><path fill="#ffffff" d="M 0.015625 0 L 594.984375 0 L 594.984375 841.5 L 0.015625 841.5 Z M 0.015625 0 " fill-opacity="1" fill-rule="nonzero"/><path fill="#ffffff" d="M 0.015625 0 L 594.984375 0 L 594.984375 841.5 L 0.015625 841.5 Z M 0.015625 0 " fill-opacity="1" fill-rule="nonzero"/><g mask="url(#4909604f3a)"><g transform="matrix(1, 0, 0, 1, -0.000000000000000002, 0)"><g clip-path="url(#c6952631be)"><g clip-path="url(#cbf1e4c7c4)"><rect x="-131.01" width="857.52" fill="#a48569" height="1212.839969" y="-185.294995" fill-opacity="1"/></g></g></g></g></g><g fill="#ffffff" fill-opacity="1"><g transform="translate(33.32278, 420.935528)"><g><path d="M 6.6875 0 L 6.6875 -1.34375 C 7.820312 -1.664062 8.753906 -2.210938 9.484375 -2.984375 C 10.210938 -3.753906 10.738281 -5.09375 11.0625 -7 C 11.394531 -8.90625 11.5625 -11.722656 11.5625 -15.453125 L 11.5625 -69.703125 C 11.5625 -73.429688 11.394531 -76.25 11.0625 -78.15625 C 10.738281 -80.0625 10.210938 -81.421875 9.484375 -82.234375 C 8.753906 -83.046875 7.820312 -83.570312 6.6875 -83.8125 L 6.6875 -85.15625 L 23.234375 -85.15625 L 23.234375 -83.8125 C 22.097656 -83.570312 21.164062 -83.046875 20.4375 -82.234375 C 19.707031 -81.421875 19.179688 -80.0625 18.859375 -78.15625 C 18.535156 -76.25 18.375 -73.429688 18.375 -69.703125 L 18.375 -6.453125 C 18.375 -3.203125 19.992188 -1.578125 23.234375 -1.578125 L 42.703125 -1.578125 C 46.347656 -1.578125 49.328125 -1.921875 51.640625 -2.609375 C 53.953125 -3.304688 55.859375 -4.441406 57.359375 -6.015625 C 58.859375 -7.597656 60.210938 -9.6875 61.421875 -12.28125 L 62.515625 -12.046875 L 61.796875 0 Z M 6.6875 0 "/></g></g></g><g fill="#ffffff" fill-opacity="1"><g transform="translate(98.640209, 420.935528)"><g><path d="M -1.453125 0 L -1.453125 -1.34375 C -0.398438 -1.664062 0.628906 -2.171875 1.640625 -2.859375 C 2.648438 -3.546875 3.742188 -4.757812 4.921875 -6.5 C 6.097656 -8.25 7.378906 -10.867188 8.765625 -14.359375 L 34.0625 -76.875 C 34.707031 -78.5 34.625 -80.125 33.8125 -81.75 L 33.09375 -83.328125 L 39.296875 -86 L 68.84375 -14.234375 C 70.300781 -10.828125 71.554688 -8.25 72.609375 -6.5 C 73.671875 -4.757812 74.644531 -3.546875 75.53125 -2.859375 C 76.425781 -2.171875 77.28125 -1.664062 78.09375 -1.34375 L 78.09375 0 L 62.765625 0 L 62.765625 -1.34375 C 63.898438 -1.664062 64.628906 -2.171875 64.953125 -2.859375 C 65.273438 -3.546875 65.191406 -4.757812 64.703125 -6.5 C 64.222656 -8.25 63.253906 -10.828125 61.796875 -14.234375 L 54.25 -32.484375 L 18 -32.484375 L 10.703125 -14.359375 C 9.160156 -10.546875 8.429688 -7.523438 8.515625 -5.296875 C 8.597656 -3.066406 9.691406 -1.75 11.796875 -1.34375 L 11.796875 0 Z M 18.734375 -34.1875 L 53.515625 -34.1875 L 35.890625 -76.875 Z M 18.734375 -34.1875 "/></g></g></g><g fill="#ffffff" fill-opacity="1"><g transform="translate(176.242663, 420.935528)"><g><path d="M 8.515625 -70.796875 C 7.210938 -74.285156 6.035156 -76.898438 4.984375 -78.640625 C 3.929688 -80.378906 2.957031 -81.613281 2.0625 -82.34375 C 1.175781 -83.082031 0.328125 -83.570312 -0.484375 -83.8125 L -0.484375 -85.15625 L 14.84375 -85.15625 L 14.84375 -83.8125 C 13.707031 -83.570312 12.976562 -83.082031 12.65625 -82.34375 C 12.332031 -81.613281 12.410156 -80.378906 12.890625 -78.640625 C 13.378906 -76.898438 14.269531 -74.285156 15.5625 -70.796875 L 40.5 -7.171875 L 64.828125 -70.671875 C 66.296875 -74.566406 66.945312 -77.628906 66.78125 -79.859375 C 66.613281 -82.085938 65.476562 -83.40625 63.375 -83.8125 L 63.375 -85.15625 L 76.640625 -85.15625 L 76.640625 -83.8125 C 75.660156 -83.570312 74.644531 -83.082031 73.59375 -82.34375 C 72.539062 -81.613281 71.46875 -80.359375 70.375 -78.578125 C 69.28125 -76.796875 68.039062 -74.160156 66.65625 -70.671875 L 39.046875 1.21875 L 36.859375 1.21875 Z M 8.515625 -70.796875 "/></g></g></g><g fill="#ffffff" fill-opacity="1"><g transform="translate(251.898972, 420.935528)"><g><path d="M 6.6875 0 L 6.6875 -1.34375 C 7.820312 -1.664062 8.753906 -2.210938 9.484375 -2.984375 C 10.210938 -3.753906 10.738281 -5.09375 11.0625 -7 C 11.394531 -8.90625 11.5625 -11.722656 11.5625 -15.453125 L 11.5625 -69.703125 C 11.5625 -73.429688 11.394531 -76.25 11.0625 -78.15625 C 10.738281 -80.0625 10.210938 -81.421875 9.484375 -82.234375 C 8.753906 -83.046875 7.820312 -83.570312 6.6875 -83.8125 L 6.6875 -85.15625 L 61.3125 -85.15625 L 62.765625 -70.671875 L 61.671875 -70.4375 C 59.804688 -75.21875 57.148438 -78.597656 53.703125 -80.578125 C 50.253906 -82.566406 45.773438 -83.5625 40.265625 -83.5625 L 18.375 -83.5625 L 18.375 -46.109375 L 38.3125 -46.109375 C 42.53125 -46.109375 45.753906 -46.410156 47.984375 -47.015625 C 50.210938 -47.617188 51.789062 -48.46875 52.71875 -49.5625 C 53.65625 -50.65625 54.285156 -51.9375 54.609375 -53.40625 L 55.953125 -53.40625 L 55.953125 -37.21875 L 54.609375 -37.21875 C 54.285156 -38.757812 53.65625 -40.054688 52.71875 -41.109375 C 51.789062 -42.171875 50.210938 -43.003906 47.984375 -43.609375 C 45.753906 -44.210938 42.53125 -44.515625 38.3125 -44.515625 L 18.375 -44.515625 L 18.375 -6.453125 C 18.375 -3.203125 19.992188 -1.578125 23.234375 -1.578125 L 43.546875 -1.578125 C 49.054688 -1.578125 53.492188 -2.488281 56.859375 -4.3125 C 60.234375 -6.144531 62.929688 -9.613281 64.953125 -14.71875 L 66.046875 -14.46875 L 64.953125 0 Z M 6.6875 0 "/></g></g></g><g fill="#ffffff" fill-opacity="1"><g transform="translate(322.811569, 420.935528)"><g><path d="M 6.6875 0 L 6.6875 -1.34375 C 7.820312 -1.664062 8.753906 -2.210938 9.484375 -2.984375 C 10.210938 -3.753906 10.738281 -5.09375 11.0625 -7 C 11.394531 -8.90625 11.5625 -11.722656 11.5625 -15.453125 L 11.5625 -69.703125 C 11.5625 -73.429688 11.394531 -76.25 11.0625 -78.15625 C 10.738281 -80.0625 10.210938 -81.421875 9.484375 -82.234375 C 8.753906 -83.046875 7.820312 -83.570312 6.6875 -83.8125 L 6.6875 -85.15625 L 23.234375 -85.15625 L 23.234375 -83.8125 C 22.097656 -83.570312 21.164062 -83.046875 20.4375 -82.234375 C 19.707031 -81.421875 19.179688 -80.0625 18.859375 -78.15625 C 18.535156 -76.25 18.375 -73.429688 18.375 -69.703125 L 18.375 -6.453125 C 18.375 -3.203125 19.992188 -1.578125 23.234375 -1.578125 L 42.703125 -1.578125 C 46.347656 -1.578125 49.328125 -1.921875 51.640625 -2.609375 C 53.953125 -3.304688 55.859375 -4.441406 57.359375 -6.015625 C 58.859375 -7.597656 60.210938 -9.6875 61.421875 -12.28125 L 62.515625 -12.046875 L 61.796875 0 Z M 6.6875 0 "/></g></g></g><g fill="#ffffff" fill-opacity="1"><g transform="translate(388.129014, 420.935528)"><g><path d="M 6.6875 0 L 6.6875 -1.34375 C 7.820312 -1.664062 8.753906 -2.210938 9.484375 -2.984375 C 10.210938 -3.753906 10.738281 -5.09375 11.0625 -7 C 11.394531 -8.90625 11.5625 -11.722656 11.5625 -15.453125 L 11.5625 -69.703125 C 11.5625 -73.429688 11.394531 -76.25 11.0625 -78.15625 C 10.738281 -80.0625 10.210938 -81.421875 9.484375 -82.234375 C 8.753906 -83.046875 7.820312 -83.570312 6.6875 -83.8125 L 6.6875 -85.15625 L 23.234375 -85.15625 L 23.234375 -83.8125 C 22.097656 -83.570312 21.164062 -83.046875 20.4375 -82.234375 C 19.707031 -81.421875 19.179688 -80.0625 18.859375 -78.15625 C 18.535156 -76.25 18.375 -73.429688 18.375 -69.703125 L 18.375 -6.453125 C 18.375 -3.203125 19.992188 -1.578125 23.234375 -1.578125 L 42.703125 -1.578125 C 46.347656 -1.578125 49.328125 -1.921875 51.640625 -2.609375 C 53.953125 -3.304688 55.859375 -4.441406 57.359375 -6.015625 C 58.859375 -7.597656 60.210938 -9.6875 61.421875 -12.28125 L 62.515625 -12.046875 L 61.796875 0 Z M 6.6875 0 "/></g></g></g><g fill="#ffffff" fill-opacity="1"><g transform="translate(453.446427, 420.935528)"><g><path d="M -1.453125 0 L -1.453125 -1.34375 C -0.398438 -1.664062 0.628906 -2.171875 1.640625 -2.859375 C 2.648438 -3.546875 3.742188 -4.757812 4.921875 -6.5 C 6.097656 -8.25 7.378906 -10.867188 8.765625 -14.359375 L 34.0625 -76.875 C 34.707031 -78.5 34.625 -80.125 33.8125 -81.75 L 33.09375 -83.328125 L 39.296875 -86 L 68.84375 -14.234375 C 70.300781 -10.828125 71.554688 -8.25 72.609375 -6.5 C 73.671875 -4.757812 74.644531 -3.546875 75.53125 -2.859375 C 76.425781 -2.171875 77.28125 -1.664062 78.09375 -1.34375 L 78.09375 0 L 62.765625 0 L 62.765625 -1.34375 C 63.898438 -1.664062 64.628906 -2.171875 64.953125 -2.859375 C 65.273438 -3.546875 65.191406 -4.757812 64.703125 -6.5 C 64.222656 -8.25 63.253906 -10.828125 61.796875 -14.234375 L 54.25 -32.484375 L 18 -32.484375 L 10.703125 -14.359375 C 9.160156 -10.546875 8.429688 -7.523438 8.515625 -5.296875 C 8.597656 -3.066406 9.691406 -1.75 11.796875 -1.34375 L 11.796875 0 Z M 18.734375 -34.1875 L 53.515625 -34.1875 L 35.890625 -76.875 Z M 18.734375 -34.1875 "/></g></g></g><g clip-path="url(#a7f7f073dc)"><g clip-path="url(#086fc01376)"><g clip-path="url(#bd467dea2a)"><path fill="#ffffff" d="M 546.609375 298.863281 C 538.285156 296.429688 534.285156 304.042969 522.542969 322.660156 C 510.804688 341.277344 508.011719 370.875 508.011719 370.875 C 507.9375 371.441406 507.90625 371.984375 507.890625 372.488281 C 505.867188 369.363281 504.082031 367.65625 502.980469 368.070312 C 501.875 368.484375 501.65625 370.945312 502.1875 374.628906 C 501.847656 374.25 501.46875 373.867188 501.035156 373.492188 C 501.035156 373.492188 479.457031 353.039062 458.367188 346.734375 C 437.28125 340.433594 429.265625 337.328125 424.59375 344.636719 C 421.082031 350.136719 424.425781 355.757812 428.410156 359.863281 C 433.367188 364.972656 440.132812 367.78125 444.480469 373.636719 C 448.578125 379.160156 450.15625 386.195312 454.007812 391.886719 C 455.359375 393.878906 457.078125 395.761719 459.347656 396.558594 C 461.503906 397.320312 463.878906 397.019531 466.128906 396.589844 C 470.414062 395.773438 474.746094 394.617188 478.933594 393.125 C 478.488281 393.433594 478.042969 393.753906 477.609375 394.082031 C 472.441406 397.957031 468.1875 403.238281 467.054688 409.738281 C 466.042969 415.558594 467.390625 421.917969 470.390625 426.972656 C 473.527344 432.261719 478.972656 435.269531 483.695312 438.949219 C 486.183594 440.882812 488.613281 443.105469 491.664062 443.921875 C 498.433594 445.730469 506.039062 441.078125 509.050781 435.125 C 510.78125 431.714844 511.261719 427.878906 511.558594 424.125 C 511.863281 420.4375 512.253906 416.753906 512.421875 413.0625 C 512.570312 409.734375 512.667969 406.398438 512.667969 403.070312 C 514.878906 406.648438 516.851562 408.660156 518.039062 408.214844 C 519.230469 407.769531 519.394531 404.960938 518.703125 400.808594 C 520.894531 403.320312 523.160156 405.761719 525.460938 408.167969 C 528.015625 410.839844 530.742188 413.355469 533.382812 415.9375 C 536.089844 418.566406 538.976562 421.144531 542.511719 422.574219 C 548.703125 425.066406 557.480469 423.570312 561.394531 417.761719 C 563.152344 415.148438 563.523438 411.871094 564.125 408.777344 C 565.265625 402.898438 567.386719 397.050781 566.269531 391.003906 C 565.203125 385.21875 562.035156 379.539062 557.445312 375.828125 C 552.316406 371.679688 545.644531 370.496094 539.199219 370.976562 C 538.65625 371.015625 538.113281 371.066406 537.570312 371.128906 C 541.707031 369.496094 545.730469 367.519531 549.496094 365.316406 C 551.46875 364.160156 553.457031 362.824219 554.582031 360.832031 C 555.765625 358.738281 555.824219 356.191406 555.53125 353.796875 C 554.691406 346.980469 551.257812 340.640625 550.707031 333.785156 C 550.128906 326.515625 553.378906 319.953125 553.75 312.839844 C 554.050781 307.128906 552.882812 300.695312 546.609375 298.863281 Z M 546.609375 298.863281 " fill-opacity="1" fill-rule="nonzero"/></g></g></g><g fill="#ffffff" fill-opacity="1"><g transform="translate(184.463856, 488.251202)"><g><path d="M 18.734375 0.21875 C 17.179688 0.21875 15.671875 0.179688 14.203125 0.109375 C 12.742188 0.0351562 10.953125 0 8.828125 0 L 2 0 L 2 -1.84375 C 3.59375 -2.238281 4.664062 -2.796875 5.21875 -3.515625 C 5.78125 -4.242188 6.0625 -5.347656 6.0625 -6.828125 L 6.0625 -30.8125 C 6.0625 -32.289062 5.78125 -33.40625 5.21875 -34.15625 C 4.664062 -34.914062 3.59375 -35.492188 2 -35.890625 L 2 -37.734375 L 8.390625 -37.734375 C 10.660156 -37.734375 12.65625 -37.769531 14.375 -37.84375 C 16.09375 -37.914062 17.4375 -37.953125 18.40625 -37.953125 C 22.914062 -37.953125 26.738281 -37.175781 29.875 -35.625 C 33.019531 -34.070312 35.421875 -31.90625 37.078125 -29.125 C 38.742188 -26.34375 39.578125 -23.09375 39.578125 -19.375 C 39.578125 -15.59375 38.742188 -12.226562 37.078125 -9.28125 C 35.421875 -6.34375 33.039062 -4.023438 29.9375 -2.328125 C 26.832031 -0.628906 23.097656 0.21875 18.734375 0.21875 Z M 18.46875 -2.375 C 23.519531 -2.375 27.351562 -3.742188 29.96875 -6.484375 C 32.582031 -9.234375 33.890625 -13.097656 33.890625 -18.078125 C 33.890625 -21.648438 33.25 -24.71875 31.96875 -27.28125 C 30.6875 -29.84375 28.84375 -31.816406 26.4375 -33.203125 C 24.039062 -34.597656 21.128906 -35.296875 17.703125 -35.296875 C 16.691406 -35.296875 15.597656 -35.257812 14.421875 -35.1875 C 13.253906 -35.113281 12.09375 -34.988281 10.9375 -34.8125 L 10.9375 -2.921875 C 12.195312 -2.703125 13.457031 -2.554688 14.71875 -2.484375 C 15.988281 -2.410156 17.238281 -2.375 18.46875 -2.375 Z M 18.46875 -2.375 "/></g></g></g><g fill="#ffffff" fill-opacity="1"><g transform="translate(226.535119, 488.251202)"><g><path d="M 30.046875 -9.15625 L 31.9375 -8.5 L 28.859375 0 L 2 0 L 2 -1.84375 C 3.59375 -2.238281 4.664062 -2.796875 5.21875 -3.515625 C 5.78125 -4.242188 6.0625 -5.347656 6.0625 -6.828125 L 6.0625 -30.8125 C 6.0625 -32.289062 5.78125 -33.378906 5.21875 -34.078125 C 4.664062 -34.785156 3.59375 -35.335938 2 -35.734375 L 2 -37.734375 L 28.53125 -37.734375 L 29.125 -29.34375 L 27.34375 -29.078125 C 26.800781 -30.410156 26.285156 -31.472656 25.796875 -32.265625 C 25.304688 -33.054688 24.726562 -33.640625 24.0625 -34.015625 C 23.394531 -34.398438 22.566406 -34.644531 21.578125 -34.75 C 20.585938 -34.863281 19.316406 -34.921875 17.765625 -34.921875 C 16.859375 -34.921875 15.816406 -34.910156 14.640625 -34.890625 C 13.472656 -34.867188 12.238281 -34.84375 10.9375 -34.8125 L 10.9375 -20.890625 L 16.078125 -20.890625 C 18.097656 -20.890625 19.613281 -21.078125 20.625 -21.453125 C 21.632812 -21.835938 22.445312 -22.753906 23.0625 -24.203125 L 24.75 -24.203125 L 24.578125 -14.1875 L 22.84375 -14.1875 C 22.488281 -15.375 22.054688 -16.253906 21.546875 -16.828125 C 21.046875 -17.410156 20.359375 -17.78125 19.484375 -17.9375 C 18.617188 -18.101562 17.484375 -18.1875 16.078125 -18.1875 L 10.9375 -18.1875 L 10.9375 -3.25 C 11.84375 -3.144531 12.925781 -3.0625 14.1875 -3 C 15.445312 -2.945312 17.234375 -2.921875 19.546875 -2.921875 C 22.179688 -2.921875 24.289062 -3.398438 25.875 -4.359375 C 27.46875 -5.316406 28.859375 -6.914062 30.046875 -9.15625 Z M 30.046875 -9.15625 "/></g></g></g><g fill="#ffffff" fill-opacity="1"><g transform="translate(260.21379, 488.251202)"><g><path d="M 1.5625 -37.734375 L 32.21875 -37.734375 L 32.75 -29.390625 L 31.1875 -29.1875 C 30.789062 -30.738281 30.3125 -31.945312 29.75 -32.8125 C 29.1875 -33.675781 28.445312 -34.285156 27.53125 -34.640625 C 26.613281 -35.003906 25.414062 -35.1875 23.9375 -35.1875 L 19.328125 -35.1875 L 19.328125 -9.046875 C 19.328125 -7.703125 19.414062 -6.5625 19.59375 -5.625 C 19.78125 -4.6875 20.1875 -3.910156 20.8125 -3.296875 C 21.445312 -2.679688 22.414062 -2.195312 23.71875 -1.84375 L 23.71875 0 L 10.171875 0 L 10.171875 -1.84375 C 11.515625 -2.195312 12.484375 -2.679688 13.078125 -3.296875 C 13.671875 -3.910156 14.046875 -4.6875 14.203125 -5.625 C 14.367188 -6.5625 14.453125 -7.703125 14.453125 -9.046875 L 14.453125 -35.1875 L 9.53125 -35.1875 C 8.050781 -35.1875 6.859375 -34.988281 5.953125 -34.59375 C 5.054688 -34.195312 4.335938 -33.546875 3.796875 -32.640625 C 3.253906 -31.742188 2.75 -30.535156 2.28125 -29.015625 L 0.546875 -29.296875 Z M 1.5625 -37.734375 "/></g></g></g><g fill="#ffffff" fill-opacity="1"><g transform="translate(293.513434, 488.251202)"><g><path d="M 22.796875 -37.734375 L 33.453125 -7.421875 C 33.890625 -6.191406 34.332031 -5.222656 34.78125 -4.515625 C 35.238281 -3.816406 35.789062 -3.273438 36.4375 -2.890625 C 37.082031 -2.515625 37.875 -2.164062 38.8125 -1.84375 L 38.8125 0 L 25.171875 0 L 25.171875 -1.84375 C 26.429688 -2.238281 27.367188 -2.84375 27.984375 -3.65625 C 28.597656 -4.46875 28.597656 -5.796875 27.984375 -7.640625 L 25.234375 -15.8125 L 13.046875 -15.859375 L 9.96875 -7.53125 C 9.382812 -5.90625 9.289062 -4.648438 9.6875 -3.765625 C 10.082031 -2.878906 11.164062 -2.238281 12.9375 -1.84375 L 12.9375 0 L 0.265625 0 L 0.265625 -1.84375 C 1.535156 -2.09375 2.628906 -2.523438 3.546875 -3.140625 C 4.460938 -3.753906 5.25 -4.875 5.90625 -6.5 L 18.25 -37.734375 Z M 19.4375 -32.96875 L 14.078125 -18.625 L 24.3125 -18.625 Z M 19.4375 -32.96875 "/></g></g></g><g fill="#ffffff" fill-opacity="1"><g transform="translate(333.148136, 488.251202)"><g><path d="M 6.390625 -9.046875 L 6.390625 -28.6875 C 6.390625 -30.0625 6.296875 -31.207031 6.109375 -32.125 C 5.929688 -33.050781 5.535156 -33.820312 4.921875 -34.4375 C 4.304688 -35.050781 3.332031 -35.535156 2 -35.890625 L 2 -37.734375 L 15.53125 -37.734375 L 15.53125 -35.890625 C 14.238281 -35.535156 13.285156 -35.050781 12.671875 -34.4375 C 12.054688 -33.820312 11.664062 -33.050781 11.5 -32.125 C 11.34375 -31.207031 11.265625 -30.0625 11.265625 -28.6875 L 11.265625 -9.046875 C 11.265625 -7.703125 11.351562 -6.5625 11.53125 -5.625 C 11.707031 -4.6875 12.113281 -3.910156 12.75 -3.296875 C 13.382812 -2.679688 14.347656 -2.195312 15.640625 -1.84375 L 15.640625 0 L 2.109375 0 L 2.109375 -1.84375 C 3.441406 -2.195312 4.40625 -2.679688 5 -3.296875 C 5.601562 -3.910156 5.984375 -4.6875 6.140625 -5.625 C 6.304688 -6.5625 6.390625 -7.703125 6.390625 -9.046875 Z M 6.390625 -9.046875 "/></g></g></g><g fill="#ffffff" fill-opacity="1"><g transform="translate(350.907948, 488.251202)"><g><path d="M 27.28125 0 L 2.328125 0 L 2.328125 -1.84375 C 3.910156 -2.238281 4.984375 -2.804688 5.546875 -3.546875 C 6.109375 -4.285156 6.390625 -5.46875 6.390625 -7.09375 L 6.390625 -28.6875 C 6.390625 -30.0625 6.296875 -31.207031 6.109375 -32.125 C 5.929688 -33.050781 5.535156 -33.820312 4.921875 -34.4375 C 4.304688 -35.050781 3.332031 -35.535156 2 -35.890625 L 2 -37.734375 L 15.53125 -37.734375 L 15.53125 -35.890625 C 14.238281 -35.535156 13.285156 -35.050781 12.671875 -34.4375 C 12.054688 -33.820312 11.664062 -33.050781 11.5 -32.125 C 11.34375 -31.207031 11.265625 -30.0625 11.265625 -28.6875 L 11.265625 -3.25 C 13.066406 -3.03125 15.300781 -2.921875 17.96875 -2.921875 C 20.601562 -2.921875 22.710938 -3.398438 24.296875 -4.359375 C 25.890625 -5.316406 27.285156 -6.914062 28.484375 -9.15625 L 30.375 -8.5 Z M 27.28125 0 "/></g></g></g><g fill="#ffffff" fill-opacity="1"><g transform="translate(381.012986, 488.251202)"><g><path d="M 12.390625 0.703125 C 9.109375 0.703125 5.863281 0.144531 2.65625 -0.96875 L 1.84375 -10.015625 L 3.734375 -10.28125 C 4.128906 -7.539062 5.238281 -5.492188 7.0625 -4.140625 C 8.882812 -2.785156 11.171875 -2.109375 13.921875 -2.109375 C 16.546875 -2.109375 18.632812 -2.785156 20.1875 -4.140625 C 21.738281 -5.492188 22.515625 -7.203125 22.515625 -9.265625 C 22.515625 -10.953125 22.132812 -12.226562 21.375 -13.09375 C 20.625 -13.96875 19.546875 -14.65625 18.140625 -15.15625 C 16.734375 -15.664062 15.070312 -16.226562 13.15625 -16.84375 C 9.90625 -17.882812 7.441406 -19.207031 5.765625 -20.8125 C 4.085938 -22.414062 3.25 -24.609375 3.25 -27.390625 C 3.25 -29.378906 3.789062 -31.175781 4.875 -32.78125 C 5.957031 -34.382812 7.453125 -35.65625 9.359375 -36.59375 C 11.273438 -37.53125 13.441406 -38 15.859375 -38 C 17.554688 -38 19.125 -37.863281 20.5625 -37.59375 C 22.007812 -37.320312 23.4375 -36.988281 24.84375 -36.59375 L 25.765625 -28.96875 L 23.984375 -28.59375 C 23.335938 -30.894531 22.28125 -32.5625 20.8125 -33.59375 C 19.351562 -34.625 17.488281 -35.140625 15.21875 -35.140625 C 12.832031 -35.140625 10.941406 -34.539062 9.546875 -33.34375 C 8.160156 -32.15625 7.46875 -30.695312 7.46875 -28.96875 C 7.46875 -27.34375 7.953125 -26.078125 8.921875 -25.171875 C 9.898438 -24.273438 11.226562 -23.519531 12.90625 -22.90625 C 14.59375 -22.289062 16.515625 -21.601562 18.671875 -20.84375 C 21.453125 -19.863281 23.53125 -18.609375 24.90625 -17.078125 C 26.28125 -15.546875 26.96875 -13.550781 26.96875 -11.09375 C 26.96875 -8.851562 26.390625 -6.835938 25.234375 -5.046875 C 24.078125 -3.265625 22.40625 -1.859375 20.21875 -0.828125 C 18.039062 0.191406 15.429688 0.703125 12.390625 0.703125 Z M 12.390625 0.703125 "/></g></g></g></svg>